HIERARCHY
ROOT hip
{
	OFFSET	0.00  0.00  0.00 
	CHANNELS 6 Xposition Yposition Zposition Xrotation Zrotation Yrotation
	JOINT abdomen
	{
		OFFSET	0.000000 3.402643 0.000000
		CHANNELS 3 Xrotation Zrotation Yrotation
		JOINT chest
		{
			OFFSET	0.000000 8.438564 -0.680529
			CHANNELS 3 Xrotation Zrotation Yrotation
			JOINT neck
			{
				OFFSET	0.000000 10.207942 -0.272212
				CHANNELS 3 Xrotation Zrotation Yrotation
				JOINT head
				{
					OFFSET	0.000000 3.130431 0.000000
					CHANNELS 3 Xrotation Zrotation Yrotation
					End Site
					{
						OFFSET 0.000000 3.130435 0.000000
					}
				}
			}
			JOINT lCollar
			{
				OFFSET	3.402647 6.669187 -0.816635
				CHANNELS 3 Yrotation Zrotation Xrotation
				JOINT lShldr
				{
					OFFSET	3.266541 0.000000 0.000000
					CHANNELS 3 Zrotation Yrotation Xrotation
					JOINT lForeArm
					{
						OFFSET	10.071835 0.000000 0.000000
						CHANNELS 3 Yrotation Zrotation Xrotation
						JOINT lHand
						{
							OFFSET	8.438563 0.000000 0.000000
							CHANNELS 3 Zrotation Yrotation Xrotation
							End Site
							{
								OFFSET 4.083176 0.000000 0.000000
							}
						}
					}
				}
			}
			JOINT rCollar
			{
				OFFSET	-3.538753 6.669187 -0.816635
				CHANNELS 3 Yrotation Zrotation Xrotation
				JOINT rShldr
				{
					OFFSET	-3.130435 0.000000 0.000000
					CHANNELS 3 Zrotation Yrotation Xrotation
					JOINT rForeArm
					{
						OFFSET	-10.207940 0.000000 0.000000
						CHANNELS 3 Yrotation Zrotation Xrotation
						JOINT rHand
						{
							OFFSET	-8.302459 0.000000 0.000000
							CHANNELS 3 Zrotation Yrotation Xrotation
							End Site
							{
								OFFSET -4.083176 0.000000 0.000000
							}
						}
					}
				}
			}
		}
	}
	JOINT lThigh
	{
		OFFSET	5.308129 -1.633274 1.361059
		CHANNELS 3 Xrotation Zrotation Yrotation
		JOINT lShin
		{
			OFFSET	-2.041588 -20.007561 0.000000
			CHANNELS 3 Xrotation Zrotation Yrotation
			JOINT lFoot
			{
				OFFSET	0.000000 -19.190928 -1.224953
				CHANNELS 3 Xrotation Yrotation Zrotation
				End Site
				{
					OFFSET 0.000000 -2.449905 4.627600
				}
			}
		}
	}
	JOINT rThigh
	{
		OFFSET	-5.308129 -1.633274 1.361059
		CHANNELS 3 Xrotation Zrotation Yrotation
		JOINT rShin
		{
			OFFSET	2.041588 -20.007561 0.000000
			CHANNELS 3 Xrotation Zrotation Yrotation
			JOINT rFoot
			{
				OFFSET	0.000000 -19.190928 -1.224953
				CHANNELS 3 Xrotation Yrotation Zrotation
				End Site
				{
					OFFSET 0.000000 -2.449905 4.627600
				}
			}
		}
	}
}
MOTION
Frames:     15
Frame Time: 0.033333
0.000000 43.689983 0.000000 0.000000 0.000000 0.000000 -0.341797 0.000000 0.000000 -0.429804 0.000000 -0.449113 0.000000 0.000000 0.000000 0.000000 0.000000 0.000000 0.281988 -8.000000 -0.002729 0.000000 -4.000000 0.000000 -8.000000 0.000000 0.000000 -7.000000 0.000000 0.000000 0.000000 8.000000 -0.194249 -0.260207 4.000000 -0.449221 8.000000 0.000000 0.000000 7.000000 0.000000 0.000000 -5.148970 4.993650 0.036424 10.235800 -2.010810 -0.090667 8.869100 1.035320 2.720320 -5.152300 -5.419230 -0.136053 10.424600 2.304250 0.111614 9.287110 0.149373 -2.022840 
-0.769436 45.009148 -0.640242 1.267560 1.093180 -0.145044 -1.764890 -0.224136 -1.616360 3.182360 -1.523140 -2.071590 21.572500 -1.102420 -0.285301 4.002580 2.890970 0.051932 -8.784340 -18.615801 -5.675060 -51.122501 -38.231701 20.263599 -62.838005 4.453168 -18.463396 -15.338100 4.620390 -50.000000 9.714270 14.715600 -9.341790 59.917599 30.961599 19.862600 60.347496 -1.814124 -17.809074 8.521250 14.138100 -46.000000 -6.555420 3.736490 0.092870 10.304200 -1.913110 -0.099022 9.976210 1.838100 2.983560 -6.564970 -6.500660 -0.092069 10.602700 2.359020 0.116681 8.138290 -0.179103 -2.464270 
-0.769436 45.009148 -0.640242 1.267560 1.093180 -0.145044 -1.764890 -0.224136 -1.616360 3.182360 -1.523140 -2.071590 21.572500 -1.102420 -0.285301 4.002580 2.890970 0.051932 -8.784340 -18.615801 -5.675060 -51.122501 -38.231701 20.263599 -62.838005 4.453168 -18.463396 -15.338100 4.620390 -50.000000 9.714270 14.715600 -9.341790 59.917599 30.961599 19.862600 60.347496 -1.814124 -17.809074 8.521250 14.138100 -46.000000 -6.555420 3.736490 0.092870 10.304200 -1.913110 -0.099022 9.976210 1.838100 2.983560 -6.564970 -6.500660 -0.092069 10.602700 2.359020 0.116681 8.138290 -0.179103 -2.464270 
-0.769436 45.009148 -0.640242 1.267560 1.093180 -0.145044 -1.764890 -0.224136 -1.616360 3.182360 -1.523140 -2.071590 21.572500 -1.102420 -0.285301 4.002580 2.890970 0.051932 -8.784340 -18.615801 -5.675060 -51.122501 -38.231701 20.263599 -62.838005 4.453168 -18.463396 -15.338100 4.620390 -50.000000 9.714270 14.715600 -9.341790 59.917599 30.961599 19.862600 60.347496 -1.814124 -17.809074 8.521250 14.138100 -46.000000 -6.555420 3.736490 0.092870 10.304200 -1.913110 -0.099022 9.976210 1.838100 2.983560 -6.564970 -6.500660 -0.092069 10.602700 2.359020 0.116681 8.138290 -0.179103 -2.464270 
-0.769436 45.009148 -0.640242 1.267560 1.093180 -0.145044 -1.764890 -0.224136 -1.616360 3.182360 -1.523140 -2.071590 21.572500 -1.102420 -0.285301 4.002580 2.890970 0.051932 -8.784340 -18.615801 -5.675060 -51.122501 -38.231701 20.263599 -62.838005 4.453168 -18.463396 -15.338100 4.620390 -50.000000 9.714270 14.715600 -9.341790 59.917599 30.961599 19.862600 60.347496 -1.814124 -17.809074 8.521250 14.138100 -46.000000 -6.555420 3.736490 0.092870 10.304200 -1.913110 -0.099022 9.976210 1.838100 2.983560 -6.564970 -6.500660 -0.092069 10.602700 2.359020 0.116681 8.138290 -0.179103 -2.464270 
-0.769436 45.009148 -0.640242 1.267560 1.093180 -0.145044 -1.764890 -0.224136 -1.616360 3.182360 -1.523140 -2.071590 21.572500 -1.102420 -0.285301 4.002580 2.890970 0.051932 -8.784340 -18.615801 -5.675060 -51.122501 -38.231701 20.263599 -62.838005 4.453168 -18.463396 -15.338100 4.620390 -50.000000 9.714270 14.715600 -9.341790 59.917599 30.961599 19.862600 60.347496 -1.814124 -17.809074 8.521250 14.138100 -46.000000 -6.555420 3.736490 0.092870 10.304200 -1.913110 -0.099022 9.976210 1.838100 2.983560 -6.564970 -6.500660 -0.092069 10.602700 2.359020 0.116681 8.138290 -0.179103 -2.464270 
-0.769436 45.009148 -0.640242 1.267560 1.093180 -0.145044 -1.764890 -0.224136 -1.616360 3.182360 -1.523140 -2.071590 21.572500 -1.102420 -0.285301 4.002580 2.890970 0.051932 -8.784340 -18.615801 -5.675060 -51.122501 -38.231701 20.263599 -62.838005 4.453168 -18.463396 -15.338100 4.620390 -50.000000 9.714270 14.715600 -9.341790 59.917599 30.961599 19.862600 60.347496 -1.814124 -17.809074 8.521250 14.138100 -46.000000 -6.555420 3.736490 0.092870 10.304200 -1.913110 -0.099022 9.976210 1.838100 2.983560 -6.564970 -6.500660 -0.092069 10.602700 2.359020 0.116681 8.138290 -0.179103 -2.464270 
-0.769436 45.009148 -0.640242 1.267560 1.093180 -0.145044 -1.764890 -0.224136 -1.616360 3.182360 -1.523140 -2.071590 21.572500 -1.102420 -0.285301 4.002580 2.890970 0.051932 -8.784340 -18.615801 -5.675060 -51.122501 -38.231701 20.263599 -62.838005 4.453168 -18.463396 -15.338100 4.620390 -50.000000 9.714270 14.715600 -9.341790 59.917599 30.961599 19.862600 60.347496 -1.814124 -17.809074 8.521250 14.138100 -46.000000 -6.555420 3.736490 0.092870 10.304200 -1.913110 -0.099022 9.976210 1.838100 2.983560 -6.564970 -6.500660 -0.092069 10.602700 2.359020 0.116681 8.138290 -0.179103 -2.464270 
-0.769436 45.009148 -0.640242 1.267560 1.093180 -0.145044 -1.764890 -0.224136 -1.616360 3.182360 -1.523140 -2.071590 21.572500 -1.102420 -0.285301 4.002580 2.890970 0.051932 -8.784340 -18.615801 -5.675060 -51.122501 -38.231701 20.263599 -62.838005 4.453168 -18.463396 -15.338100 4.620390 -50.000000 9.714270 14.715600 -9.341790 59.917599 30.961599 19.862600 60.347496 -1.814124 -17.809074 8.521250 14.138100 -46.000000 -6.555420 3.736490 0.092870 10.304200 -1.913110 -0.099022 9.976210 1.838100 2.983560 -6.564970 -6.500660 -0.092069 10.602700 2.359020 0.116681 8.138290 -0.179103 -2.464270 
-0.769436 45.009148 -0.640242 1.267560 1.093180 -0.145044 -1.764890 -0.224136 -1.616360 3.182360 -1.523140 -2.071590 21.572500 -1.102420 -0.285301 4.002580 2.890970 0.051932 -8.784340 -18.615801 -5.675060 -51.122501 -38.231701 20.263599 -62.838005 4.453168 -18.463396 -15.338100 4.620390 -50.000000 9.714270 14.715600 -9.341790 59.917599 30.961599 19.862600 60.347496 -1.814124 -17.809074 8.521250 14.138100 -46.000000 -6.555420 3.736490 0.092870 10.304200 -1.913110 -0.099022 9.976210 1.838100 2.983560 -6.564970 -6.500660 -0.092069 10.602700 2.359020 0.116681 8.138290 -0.179103 -2.464270 
-0.769436 45.009148 -0.640242 1.267560 1.093180 -0.145044 -1.764890 -0.224136 -1.616360 3.182360 -1.523140 -2.071590 21.572500 -1.102420 -0.285301 4.002580 2.890970 0.051932 -8.784340 -18.615801 -5.675060 -51.122501 -38.231701 20.263599 -62.838005 4.453168 -18.463396 -15.338100 4.620390 -50.000000 9.714270 14.715600 -9.341790 59.917599 30.961599 19.862600 60.347496 -1.814124 -17.809074 8.521250 14.138100 -46.000000 -6.555420 3.736490 0.092870 10.304200 -1.913110 -0.099022 9.976210 1.838100 2.983560 -6.564970 -6.500660 -0.092069 10.602700 2.359020 0.116681 8.138290 -0.179103 -2.464270 
-0.769436 45.009148 -0.640242 1.267560 1.093180 -0.145044 -1.764890 -0.224136 -1.616360 3.182360 -1.523140 -2.071590 21.572500 -1.102420 -0.285301 4.002580 2.890970 0.051932 -8.784340 -18.615801 -5.675060 -51.122501 -38.231701 20.263599 -62.838005 4.453168 -18.463396 -15.338100 4.620390 -50.000000 9.714270 14.715600 -9.341790 59.917599 30.961599 19.862600 60.347496 -1.814124 -17.809074 8.521250 14.138100 -46.000000 -6.555420 3.736490 0.092870 10.304200 -1.913110 -0.099022 9.976210 1.838100 2.983560 -6.564970 -6.500660 -0.092069 10.602700 2.359020 0.116681 8.138290 -0.179103 -2.464270 
-0.769436 45.009148 -0.640242 1.267560 1.093180 -0.145044 -1.764890 -0.224136 -1.616360 3.182360 -1.523140 -2.071590 21.572500 -1.102420 -0.285301 4.002580 2.890970 0.051932 -8.784340 -18.615801 -5.675060 -51.122501 -38.231701 20.263599 -62.838005 4.453168 -18.463396 -15.338100 4.620390 -50.000000 9.714270 14.715600 -9.341790 59.917599 30.961599 19.862600 60.347496 -1.814124 -17.809074 8.521250 14.138100 -46.000000 -6.555420 3.736490 0.092870 10.304200 -1.913110 -0.099022 9.976210 1.838100 2.983560 -6.564970 -6.500660 -0.092069 10.602700 2.359020 0.116681 8.138290 -0.179103 -2.464270 
-0.769436 45.009148 -0.640242 1.267560 1.093180 -0.145044 -1.764890 -0.224136 -1.616360 3.182360 -1.523140 -2.071590 21.572500 -1.102420 -0.285301 4.002580 2.890970 0.051932 -8.784340 -18.615801 -5.675060 -51.122501 -38.231701 20.263599 -62.838005 4.453168 -18.463396 -15.338100 4.620390 -50.000000 9.714270 14.715600 -9.341790 59.917599 30.961599 19.862600 60.347496 -1.814124 -17.809074 8.521250 14.138100 -46.000000 -6.555420 3.736490 0.092870 10.304200 -1.913110 -0.099022 9.976210 1.838100 2.983560 -6.564970 -6.500660 -0.092069 10.602700 2.359020 0.116681 8.138290 -0.179103 -2.464270 
-0.769436 45.009148 -0.640242 1.267560 1.093180 -0.145044 -1.764890 -0.224136 -1.616360 3.182360 -1.523140 -2.071590 21.572500 -1.102420 -0.285301 4.002580 2.890970 0.051932 -8.784340 -18.615801 -5.675060 -51.122501 -38.231701 20.263599 -62.838005 4.453168 -18.463396 -15.338100 4.620390 -50.000000 9.714270 14.715600 -9.341790 59.917599 30.961599 19.862600 60.347496 -1.814124 -17.809074 8.521250 14.138100 -46.000000 -6.555420 3.736490 0.092870 10.304200 -1.913110 -0.099022 9.976210 1.838100 2.983560 -6.564970 -6.500660 -0.092069 10.602700 2.359020 0.116681 8.138290 -0.179103 -2.464270 
